#N canvas 469 30 751 551 10;
#X obj 20 489 h.output~;
#N canvas 768 50 450 300 preset 0;
#X obj 103 122 bng 15 250 50 0 empty empty recall 17 7 0 10 -4034 -1
-1;
#X obj 103 141 bng 15 250 50 0 empty empty store 17 7 0 10 -258113
-1 -1;
#X obj 103 80 loadbang;
#X obj 17 56 apmaster \$0-preset;
#X obj 103 204 apsubmaster \$0-samples \$0-preset samples;
#X obj 103 182 apmasterfile \$0-preset preset2.txt;
#X obj 103 223 apsubmaster \$0-fx \$0-preset fx;
#X connect 0 0 5 0;
#X connect 1 0 5 1;
#X connect 2 0 0 0;
#X coords 0 -1 1 1 85 60 1 100 100;
#X restore 630 -2 pd preset;
#X obj 299 406 notein, f 11;
#X floatatom 299 428 5 0 0 0 - - -, f 5;
#X floatatom 336 428 5 0 0 0 - - -, f 5;
#X floatatom 373 428 5 0 0 0 - - -, f 5;
#X obj 300 359 ctlin, f 14;
#X floatatom 300 381 5 0 0 0 - - -, f 5;
#X floatatom 338 381 5 0 0 0 - - -, f 5;
#X floatatom 375 381 5 0 0 0 - - -, f 5;
#X obj 20 400 catch~ masterbus-L;
#X obj 97 446 catch~ masterbus-R;
#X obj 39 423 catch~ masterbus-C;
#N canvas 1 50 450 300 memo 0;
#X msg 17 86 1;
#X msg 52 84 0;
#X obj 18 113 s \$0-samples-intro-sample-1-cmd;
#X connect 0 0 2 0;
#X connect 1 0 2 0;
#X restore 441 420 pd memo;
#N canvas 1 261 450 300 ideas 0;
#X text 18 12 Sampler : jouer une note arrète les autres samples.
On pourrait mettre une option ON/OFF sur ce paramètre.;
#X text 18 49 Système de bus :;
#X text 26 94 Implementer velocité;
#X text 20 121 note off;
#X restore 441 402 pd ideas;
#X obj 197 -3 sampler~ \$0-samples savaneJour;
#N canvas 1 30 503 669 effets 1;
#X obj 27 70 hoc.pan.mono~;
#X obj 27 8 catch~ \$0-samples-bus-C;
#X obj 27 556 throw~ masterbus-C;
#X obj 27 190 hoc.pan.mono~;
#X obj 27 593 catch~ \$0-samples-bus-L;
#X obj 26 614 catch~ \$0-samples-bus-R;
#X obj 108 321 h.comb~;
#X obj 27 274 hoc.pan.mono~;
#X obj 116 461 h.retrigger~;
#X obj 27 437 hoc.pan.mono~;
#N canvas 1 50 450 300 metro 0;
#X obj 136 74 inlet;
#X obj 168 125 * 4;
#X obj 136 163 metro;
#X obj 114 141 loadbang;
#X obj 179 144 bng 15 250 50 0 empty empty empty 17 7 0 10 -262144
-1 -1;
#X obj 136 185 outlet;
#X connect 0 0 1 0;
#X connect 1 0 2 1;
#X connect 2 0 5 0;
#X connect 3 0 2 0;
#X connect 4 0 2 0;
#X restore 229 454 pd metro;
#X obj 115 162 h.ctlin 9 0 0 1;
#X obj 115 42 h.ctlin 3 0 0 1;
#X obj 286 68 h.ctlin 16 0 -12 12;
#X obj 152 290 h.ctlin 18 0 20 1000;
#X obj 200 316 h.ctlin 22 0 0 1;
#X obj 135 264 h.ctlin 14 0 0 1;
#X obj 123 392 h.ctlin 15 0 0 1;
#X obj 228 472 h.ctlin 23 0 -5 7;
#X obj 274 186 h.ctlin 21 0 80 44100 2;
#X obj 227 162 h.ctlin 17 0 1 16 2;
#X obj 229 424 h.ctlin 19 0 2 500 2;
#X obj 113 98 h.pitchshifter~;
#X obj 116 212 h.bitcrusher~;
#X obj 349 247 h.midi.knob 21;
#X connect 0 0 3 0;
#X connect 0 1 22 0;
#X connect 1 0 0 0;
#X connect 3 0 7 0;
#X connect 3 1 23 0;
#X connect 6 0 9 0;
#X connect 7 0 9 0;
#X connect 7 1 6 0;
#X connect 8 0 2 0;
#X connect 9 0 2 0;
#X connect 9 1 8 0;
#X connect 10 0 8 3;
#X connect 11 0 3 1;
#X connect 12 0 0 1;
#X connect 13 0 22 1;
#X connect 14 0 6 1;
#X connect 15 0 6 2;
#X connect 16 0 7 1;
#X connect 17 0 9 1;
#X connect 18 0 8 2;
#X connect 19 0 23 2;
#X connect 20 0 23 1;
#X connect 21 0 8 1;
#X connect 21 0 10 0;
#X connect 22 0 3 0;
#X connect 23 0 7 0;
#X restore 20 377 pd effets;
#X obj -3 -3 sampler~ \$0-samples intro;
#X obj 411 -3 sampler~ \$0-samples savaneNuit;
#X connect 2 0 3 0;
#X connect 2 1 4 0;
#X connect 2 2 5 0;
#X connect 6 0 7 0;
#X connect 6 1 8 0;
#X connect 6 2 9 0;
#X connect 10 0 0 0;
#X connect 11 0 0 1;
#X connect 12 0 0 1;
#X connect 12 0 0 0;
