#N canvas 635 63 624 397 10;
#X obj 222 287 outlet~;
#X obj 426 287 outlet~;
#X obj 224 211 apsubmaster \$0-localref \$1 \$2;
#X obj 224 187 apf \$0-localref first_note \$0-first_note;
#X floatatom 93 23 5 0 0 0 first_note #0-first_note-rcv #0-first_note-snd
, f 5;
#X obj 224 140 s \$2-first_note;
#X obj 223 238 catch~ bus-\$2-L;
#X obj 427 238 catch~ bus-\$2-R;
#X obj 185 37 bng 15 250 50 0 empty empty empty 17 7 0 10 -262144 -1
-1;
#X obj 224 167 apf \$0-localref midi_channel \$0-midi_channel;
#X floatatom 93 38 5 0 0 0 midi-channel #0-midi_channel-rcv #0-midi_channel-snd
, f 5;
#X obj 225 97 s \$2-midi_channel;
#X obj 225 77 r \$0-midi_channel-snd;
#N canvas 363 120 424 367 auto-populate 0;
#X obj 67 312 apgetval \$1 oct1-sample-1 path;
#X obj 70 73 folder_list ./pool/\$2/*;
#X obj 149 186 makefilename \$2-sample-%d;
#X obj 149 165 + 1;
#X obj 149 145 0;
#X obj 270 248 list append path;
#X obj 270 270 list trim;
#X msg 67 249 set \$1;
#X msg 167 122 0;
#X obj 70 28 inlet;
#X obj 70 51 t b b;
#X obj 70 102 t b b s b;
#X obj 110 208 symbol;
#X obj 137 270 list trim;
#X msg 16 249 set 1;
#X obj 137 248 list append volume;
#X connect 1 0 11 0;
#X connect 2 0 5 0;
#X connect 2 0 12 1;
#X connect 3 0 4 1;
#X connect 3 0 2 0;
#X connect 4 0 3 0;
#X connect 5 0 6 0;
#X connect 6 0 0 1;
#X connect 7 0 0 0;
#X connect 8 0 4 1;
#X connect 9 0 10 0;
#X connect 10 0 1 0;
#X connect 10 1 8 0;
#X connect 11 0 14 0;
#X connect 11 1 12 0;
#X connect 11 2 7 0;
#X connect 11 3 4 0;
#X connect 12 0 15 0;
#X connect 13 0 0 1;
#X connect 14 0 0 0;
#X connect 15 0 13 0;
#X restore 203 36 pd auto-populate;
#X obj 224 119 r \$0-first_note-snd;
#X obj 229 262 throw~ \$1-bus-L;
#X obj 433 261 throw~ \$1-bus-R;
#X obj 300 289 throw~ \$1-bus-C;
#X obj 0 52 h.readsf~ \$1 sample-1 0 \$2;
#X obj 0 76 h.readsf~ \$1 sample-2 1 \$2;
#X obj 0 100 h.readsf~ \$1 sample-3 2 \$2;
#X obj 0 124 h.readsf~ \$1 sample-4 3 \$2;
#X obj 0 148 h.readsf~ \$1 sample-5 4 \$2;
#X obj 0 172 h.readsf~ \$1 sample-6 5 \$2;
#X obj 0 196 h.readsf~ \$1 sample-7 6 \$2;
#X obj 0 220 h.readsf~ \$1 sample-8 7 \$2;
#X obj 0 244 h.readsf~ \$1 sample-9 8 \$2;
#X obj 0 268 h.readsf~ \$1 sample-10 9 \$2;
#X obj 0 292 h.readsf~ \$1 sample-11 10 \$2;
#X obj 0 316 h.readsf~ \$1 sample-12 11 \$2;
#X obj 100 52 h.readsf~ \$1 sample-13 12 \$2;
#X obj 100 76 h.readsf~ \$1 sample-14 13 \$2;
#X obj 100 100 h.readsf~ \$1 sample-15 14 \$2;
#X obj 100 124 h.readsf~ \$1 sample-16 15 \$2;
#X obj 100 148 h.readsf~ \$1 sample-17 16 \$2;
#X obj 100 172 h.readsf~ \$1 sample-18 17 \$2;
#X obj 100 196 h.readsf~ \$1 sample-19 18 \$2;
#X obj 100 220 h.readsf~ \$1 sample-20 19 \$2;
#X obj 100 244 h.readsf~ \$1 sample-21 20 \$2;
#X obj 100 268 h.readsf~ \$1 sample-22 21 \$2;
#X obj 100 292 h.readsf~ \$1 sample-23 22 \$2;
#X obj 100 316 h.readsf~ \$1 sample-24 23 \$2;
#N canvas 562 134 450 300 midi_routing 1;
#X obj 119 24 notein;
#X obj 119 118 route;
#X obj 137 160 r \$0-first_note-snd;
#X obj 151 96 r \$0-midi_channel-snd;
#X obj 116 263 s;
#X obj 119 140 stripnote;
#X obj 119 74 list prepend;
#X obj 119 54 pack f f;
#X obj 119 181 -;
#X obj 119 203 t b f;
#X obj 150 222 + 1;
#X msg 116 227 1;
#X obj 150 243 makefilename \$1-\$2-sample-%d-cmd;
#X connect 0 0 7 0;
#X connect 0 1 7 1;
#X connect 0 2 6 1;
#X connect 1 0 5 0;
#X connect 2 0 8 1;
#X connect 3 0 1 1;
#X connect 5 0 8 0;
#X connect 6 0 1 0;
#X connect 7 0 6 0;
#X connect 8 0 9 0;
#X connect 9 0 11 0;
#X connect 9 1 10 0;
#X connect 10 0 12 0;
#X connect 11 0 4 0;
#X connect 12 0 4 1;
#X restore 426 117 pd midi_routing;
#X connect 6 0 0 0;
#X connect 6 0 16 0;
#X connect 6 0 17 0;
#X connect 7 0 1 0;
#X connect 7 0 17 0;
#X connect 8 0 13 0;
#X connect 12 0 11 0;
#X connect 14 0 5 0;
#X coords 0 -1 1 1 200 340 1 0 0;
